<svg width="25" height="22" viewBox="0 0 25 22" fill="none" xmlns="http://www.w3.org/2000/svg">
<g clip-path="url(#clip0_1_282)">
<path d="M12.4908 21.361L12.0978 21.0171C3.15595 13.7457 0.748535 11.1909 0.748535 7.01472C0.748535 3.57555 3.549 0.824219 6.93904 0.824219C9.78863 0.824219 11.41 2.44554 12.4908 3.67381C13.5717 2.44554 15.193 0.824219 18.0426 0.824219C21.4818 0.824219 24.2332 3.62468 24.2332 7.01472C24.2332 11.1909 21.8257 13.7457 12.8839 21.0171L12.4908 21.361ZM6.93904 2.10162C4.23683 2.10162 2.02594 4.31252 2.02594 7.01472C2.02594 10.6013 4.28596 12.9596 12.4908 19.6905C20.6957 12.9596 22.9557 10.6013 22.9557 7.01472C22.9557 4.31252 20.7449 2.10162 18.0426 2.10162C15.5861 2.10162 14.2596 3.57556 13.2278 4.7547L12.4908 5.58992L11.7539 4.7547C10.7221 3.57556 9.39559 2.10162 6.93904 2.10162Z" fill="#1B1C1E"/>
</g>
<defs>
<clipPath id="clip0_1_282">
<rect width="23.5829" height="20.635" fill="white" transform="translate(0.748535 0.824219)"/>
</clipPath>
</defs>
</svg>
