<svg width="25" height="22" viewBox="0 0 25 22" fill="none" xmlns="http://www.w3.org/2000/svg">
<g clip-path="url(#clip0_1_687)">
<path d="M12.4908 21.3562L12.0978 21.0123C3.15595 13.7409 0.748535 11.1861 0.748535 7.00992C0.748535 3.57075 3.549 0.819421 6.93904 0.819421C9.78863 0.819421 11.41 2.44074 12.4908 3.66901C13.5717 2.44074 15.193 0.819421 18.0426 0.819421C21.4818 0.819421 24.2332 3.61988 24.2332 7.00992C24.2332 11.1861 21.8257 13.7409 12.8839 21.0123L12.4908 21.3562ZM6.93904 2.09682C4.23683 2.09682 2.02594 4.30772 2.02594 7.00992C2.02594 10.5965 4.28596 12.9548 12.4908 19.6857C20.6957 12.9548 22.9557 10.5965 22.9557 7.00992C22.9557 4.30772 20.7449 2.09682 18.0426 2.09682C15.5861 2.09682 14.2596 3.57076 13.2278 4.7499L12.4908 5.58513L11.7539 4.7499C10.7221 3.57076 9.39559 2.09682 6.93904 2.09682Z" fill="#1B1C1E"/>
</g>
<defs>
<clipPath id="clip0_1_687">
<rect width="23.5829" height="20.635" fill="white" transform="translate(0.748535 0.819421)"/>
</clipPath>
</defs>
</svg>
