<svg width="25" height="22" viewBox="0 0 25 22" fill="none" xmlns="http://www.w3.org/2000/svg">
<g clip-path="url(#clip0_1_465)">
<path d="M12.2718 21.158L11.8788 20.8141C2.93691 13.5427 0.529495 10.9879 0.529495 6.81172C0.529495 3.37255 3.32996 0.621216 6.72 0.621216C9.56959 0.621216 11.1909 2.24253 12.2718 3.47081C13.3527 2.24253 14.974 0.621216 17.8236 0.621216C21.2628 0.621216 24.0141 3.42168 24.0141 6.81172C24.0141 10.9879 21.6067 13.5427 12.6649 20.8141L12.2718 21.158ZM6.72 1.89862C4.01779 1.89862 1.8069 4.10951 1.8069 6.81172C1.8069 10.3983 4.06692 12.7566 12.2718 19.4875C20.4767 12.7566 22.7367 10.3983 22.7367 6.81172C22.7367 4.10951 20.5258 1.89862 17.8236 1.89862C15.3671 1.89862 14.0405 3.37255 13.0088 4.5517L12.2718 5.38692L11.5348 4.5517C10.5031 3.37255 9.17655 1.89862 6.72 1.89862Z" fill="#1B1C1E"/>
</g>
<defs>
<clipPath id="clip0_1_465">
<rect width="23.5829" height="20.635" fill="white" transform="translate(0.529495 0.621216)"/>
</clipPath>
</defs>
</svg>
