<svg width="24" height="22" viewBox="0 0 24 22" fill="none" xmlns="http://www.w3.org/2000/svg">
<g clip-path="url(#clip0_1_748)">
<path d="M12.0845 20.9553L11.6914 20.6114C2.74958 13.34 0.342163 10.7852 0.342163 6.60905C0.342163 3.16988 3.14263 0.418549 6.53266 0.418549C9.38226 0.418549 11.0036 2.03987 12.0845 3.26814C13.1654 2.03987 14.7867 0.418549 17.6363 0.418549C21.0754 0.418549 23.8268 3.21901 23.8268 6.60905C23.8268 10.7852 21.4194 13.34 12.4775 20.6114L12.0845 20.9553ZM6.53266 1.69595C3.83046 1.69595 1.61956 3.90685 1.61956 6.60905C1.61956 10.1956 3.87959 12.5539 12.0845 19.2849C20.2893 12.5539 22.5494 10.1956 22.5494 6.60905C22.5494 3.90685 20.3385 1.69595 17.6363 1.69595C15.1797 1.69595 13.8532 3.16988 12.8214 4.34903L12.0845 5.18425L11.3475 4.34903C10.3158 3.16988 8.98921 1.69595 6.53266 1.69595Z" fill="#1B1C1E"/>
</g>
<defs>
<clipPath id="clip0_1_748">
<rect width="23.5829" height="20.635" fill="white" transform="translate(0.342163 0.418549)"/>
</clipPath>
</defs>
</svg>
