<svg width="25" height="22" viewBox="0 0 25 22" fill="none" xmlns="http://www.w3.org/2000/svg">
<g clip-path="url(#clip0_1_768)">
<path d="M12.4908 20.9553L12.0978 20.6114C3.15595 13.34 0.748535 10.7852 0.748535 6.60905C0.748535 3.16988 3.549 0.418549 6.93904 0.418549C9.78863 0.418549 11.41 2.03987 12.4908 3.26814C13.5717 2.03987 15.193 0.418549 18.0426 0.418549C21.4818 0.418549 24.2332 3.21901 24.2332 6.60905C24.2332 10.7852 21.8257 13.34 12.8839 20.6114L12.4908 20.9553ZM6.93904 1.69595C4.23683 1.69595 2.02594 3.90685 2.02594 6.60905C2.02594 10.1956 4.28596 12.5539 12.4908 19.2849C20.6957 12.5539 22.9557 10.1956 22.9557 6.60905C22.9557 3.90685 20.7449 1.69595 18.0426 1.69595C15.5861 1.69595 14.2596 3.16988 13.2278 4.34903L12.4908 5.18425L11.7539 4.34903C10.7221 3.16988 9.39559 1.69595 6.93904 1.69595Z" fill="#1B1C1E"/>
</g>
<defs>
<clipPath id="clip0_1_768">
<rect width="23.5829" height="20.635" fill="white" transform="translate(0.748535 0.418549)"/>
</clipPath>
</defs>
</svg>
