<svg width="25" height="22" viewBox="0 0 25 22" fill="none" xmlns="http://www.w3.org/2000/svg">
<g clip-path="url(#clip0_1_222)">
<path d="M12.2718 21.361L11.8788 21.0171C2.93691 13.7457 0.529495 11.1909 0.529495 7.01472C0.529495 3.57555 3.32996 0.824219 6.72 0.824219C9.56959 0.824219 11.1909 2.44554 12.2718 3.67381C13.3527 2.44554 14.974 0.824219 17.8236 0.824219C21.2628 0.824219 24.0141 3.62468 24.0141 7.01472C24.0141 11.1909 21.6067 13.7457 12.6649 21.0171L12.2718 21.361ZM6.72 2.10162C4.01779 2.10162 1.8069 4.31252 1.8069 7.01472C1.8069 10.6013 4.06692 12.9596 12.2718 19.6905C20.4767 12.9596 22.7367 10.6013 22.7367 7.01472C22.7367 4.31252 20.5258 2.10162 17.8236 2.10162C15.3671 2.10162 14.0405 3.57556 13.0088 4.7547L12.2718 5.58992L11.5348 4.7547C10.5031 3.57556 9.17655 2.10162 6.72 2.10162Z" fill="#1B1C1E"/>
</g>
<defs>
<clipPath id="clip0_1_222">
<rect width="23.5829" height="20.635" fill="white" transform="translate(0.529495 0.824219)"/>
</clipPath>
</defs>
</svg>
