<svg width="24" height="22" viewBox="0 0 24 22" fill="none" xmlns="http://www.w3.org/2000/svg">
<g clip-path="url(#clip0_1_667)">
<path d="M12.0845 21.3562L11.6914 21.0123C2.74958 13.7409 0.342163 11.1861 0.342163 7.00992C0.342163 3.57075 3.14263 0.819421 6.53266 0.819421C9.38226 0.819421 11.0036 2.44074 12.0845 3.66901C13.1654 2.44074 14.7867 0.819421 17.6363 0.819421C21.0754 0.819421 23.8268 3.61988 23.8268 7.00992C23.8268 11.1861 21.4194 13.7409 12.4775 21.0123L12.0845 21.3562ZM6.53266 2.09682C3.83046 2.09682 1.61956 4.30772 1.61956 7.00992C1.61956 10.5965 3.87959 12.9548 12.0845 19.6857C20.2893 12.9548 22.5494 10.5965 22.5494 7.00992C22.5494 4.30772 20.3385 2.09682 17.6363 2.09682C15.1797 2.09682 13.8532 3.57076 12.8214 4.7499L12.0845 5.58513L11.3475 4.7499C10.3158 3.57076 8.98921 2.09682 6.53266 2.09682Z" fill="#1B1C1E"/>
</g>
<defs>
<clipPath id="clip0_1_667">
<rect width="23.5829" height="20.635" fill="white" transform="translate(0.342163 0.819421)"/>
</clipPath>
</defs>
</svg>
