<svg width="25" height="22" viewBox="0 0 25 22" fill="none" xmlns="http://www.w3.org/2000/svg">
<g clip-path="url(#clip0_1_647)">
<path d="M12.6781 21.3562L12.285 21.0123C3.34321 13.7409 0.935791 11.1861 0.935791 7.00992C0.935791 3.57075 3.73625 0.819421 7.12629 0.819421C9.97589 0.819421 11.5972 2.44074 12.6781 3.66901C13.759 2.44074 15.3803 0.819421 18.2299 0.819421C21.6691 0.819421 24.4204 3.61988 24.4204 7.00992C24.4204 11.1861 22.013 13.7409 13.0711 21.0123L12.6781 21.3562ZM7.12629 2.09682C4.42409 2.09682 2.21319 4.30772 2.21319 7.00992C2.21319 10.5965 4.47322 12.9548 12.6781 19.6857C20.883 12.9548 23.143 10.5965 23.143 7.00992C23.143 4.30772 20.9321 2.09682 18.2299 2.09682C15.7734 2.09682 14.4468 3.57076 13.4151 4.7499L12.6781 5.58513L11.9411 4.7499C10.9094 3.57076 9.58284 2.09682 7.12629 2.09682Z" fill="#1B1C1E"/>
</g>
<defs>
<clipPath id="clip0_1_647">
<rect width="23.5829" height="20.635" fill="white" transform="translate(0.935791 0.819421)"/>
</clipPath>
</defs>
</svg>
