<svg width="25" height="21" viewBox="0 0 25 21" fill="none" xmlns="http://www.w3.org/2000/svg">
<g clip-path="url(#clip0_1_566)">
<path d="M12.6782 20.7571L12.2851 20.4131C3.34327 13.1418 0.935852 10.5869 0.935852 6.41081C0.935852 2.97164 3.73631 0.220306 7.12635 0.220306C9.97595 0.220306 11.5973 1.84162 12.6782 3.0699C13.759 1.84162 15.3804 0.220306 18.23 0.220306C21.6691 0.220306 24.4205 3.02077 24.4205 6.41081C24.4205 10.5869 22.0131 13.1418 13.0712 20.4131L12.6782 20.7571ZM7.12635 1.49771C4.42415 1.49771 2.21325 3.7086 2.21325 6.41081C2.21325 9.99737 4.47328 12.3557 12.6782 19.0866C20.883 12.3557 23.1431 9.99737 23.1431 6.41081C23.1431 3.7086 20.9322 1.49771 18.23 1.49771C15.7734 1.49771 14.4469 2.97164 13.4151 4.15079L12.6782 4.98601L11.9412 4.15079C10.9094 2.97164 9.5829 1.49771 7.12635 1.49771Z" fill="#1B1C1E"/>
</g>
<defs>
<clipPath id="clip0_1_566">
<rect width="23.5829" height="20.635" fill="white" transform="translate(0.935852 0.220306)"/>
</clipPath>
</defs>
</svg>
