<svg width="25" height="21" viewBox="0 0 25 21" fill="none" xmlns="http://www.w3.org/2000/svg">
<g clip-path="url(#clip0_1_606)">
<path d="M12.4908 20.7571L12.0978 20.4131C3.15595 13.1418 0.748535 10.5869 0.748535 6.41081C0.748535 2.97164 3.549 0.220306 6.93904 0.220306C9.78863 0.220306 11.41 1.84162 12.4908 3.0699C13.5717 1.84162 15.193 0.220306 18.0426 0.220306C21.4818 0.220306 24.2332 3.02077 24.2332 6.41081C24.2332 10.5869 21.8257 13.1418 12.8839 20.4131L12.4908 20.7571ZM6.93904 1.49771C4.23683 1.49771 2.02594 3.7086 2.02594 6.41081C2.02594 9.99737 4.28596 12.3557 12.4908 19.0866C20.6957 12.3557 22.9557 9.99737 22.9557 6.41081C22.9557 3.7086 20.7449 1.49771 18.0426 1.49771C15.5861 1.49771 14.2596 2.97164 13.2278 4.15079L12.4908 4.98601L11.7539 4.15079C10.7221 2.97164 9.39559 1.49771 6.93904 1.49771Z" fill="#1B1C1E"/>
</g>
<defs>
<clipPath id="clip0_1_606">
<rect width="23.5829" height="20.635" fill="white" transform="translate(0.748535 0.220306)"/>
</clipPath>
</defs>
</svg>
