<svg width="25" height="22" viewBox="0 0 25 22" fill="none" xmlns="http://www.w3.org/2000/svg">
<g clip-path="url(#clip0_1_303)">
<path d="M12.2717 20.96L11.8787 20.6161C2.93683 13.3447 0.529419 10.7899 0.529419 6.61372C0.529419 3.17455 3.32988 0.423218 6.71992 0.423218C9.56952 0.423218 11.1908 2.04453 12.2717 3.27281C13.3526 2.04453 14.9739 0.423218 17.8235 0.423218C21.2627 0.423218 24.014 3.22368 24.014 6.61372C24.014 10.7899 21.6066 13.3447 12.6648 20.6161L12.2717 20.96ZM6.71992 1.70062C4.01772 1.70062 1.80682 3.91151 1.80682 6.61372C1.80682 10.2003 4.06685 12.5586 12.2717 19.2895C20.4766 12.5586 22.7366 10.2003 22.7366 6.61372C22.7366 3.91151 20.5257 1.70062 17.8235 1.70062C15.367 1.70062 14.0404 3.17455 13.0087 4.3537L12.2717 5.18892L11.5348 4.3537C10.503 3.17455 9.17647 1.70062 6.71992 1.70062Z" fill="#1B1C1E"/>
</g>
<defs>
<clipPath id="clip0_1_303">
<rect width="23.5829" height="20.635" fill="white" transform="translate(0.529419 0.423218)"/>
</clipPath>
</defs>
</svg>
