<svg width="25" height="22" viewBox="0 0 25 22" fill="none" xmlns="http://www.w3.org/2000/svg">
<g clip-path="url(#clip0_1_323)">
<path d="M12.6782 20.96L12.2851 20.6161C3.34327 13.3447 0.935852 10.7899 0.935852 6.61372C0.935852 3.17455 3.73631 0.423218 7.12635 0.423218C9.97595 0.423218 11.5973 2.04453 12.6782 3.27281C13.759 2.04453 15.3804 0.423218 18.23 0.423218C21.6691 0.423218 24.4205 3.22368 24.4205 6.61372C24.4205 10.7899 22.0131 13.3447 13.0712 20.6161L12.6782 20.96ZM7.12635 1.70062C4.42415 1.70062 2.21325 3.91151 2.21325 6.61372C2.21325 10.2003 4.47328 12.5586 12.6782 19.2895C20.883 12.5586 23.1431 10.2003 23.1431 6.61372C23.1431 3.91151 20.9322 1.70062 18.23 1.70062C15.7734 1.70062 14.4469 3.17455 13.4151 4.3537L12.6782 5.18892L11.9412 4.3537C10.9094 3.17455 9.5829 1.70062 7.12635 1.70062Z" fill="#1B1C1E"/>
</g>
<defs>
<clipPath id="clip0_1_323">
<rect width="23.5829" height="20.635" fill="white" transform="translate(0.935852 0.423218)"/>
</clipPath>
</defs>
</svg>
