<svg width="25" height="21" viewBox="0 0 25 21" fill="none" xmlns="http://www.w3.org/2000/svg">
<g clip-path="url(#clip0_1_1500)">
<path d="M12.6781 20.7619L12.285 20.4179C3.34321 13.1465 0.935791 10.5917 0.935791 6.4156C0.935791 2.97643 3.73625 0.225098 7.12629 0.225098C9.97589 0.225098 11.5972 1.84641 12.6781 3.07469C13.759 1.84641 15.3803 0.225098 18.2299 0.225098C21.6691 0.225098 24.4204 3.02556 24.4204 6.4156C24.4204 10.5917 22.013 13.1465 13.0711 20.4179L12.6781 20.7619ZM7.12629 1.5025C4.42409 1.5025 2.21319 3.71339 2.21319 6.4156C2.21319 10.0022 4.47322 12.3605 12.6781 19.0914C20.883 12.3605 23.143 10.0022 23.143 6.4156C23.143 3.71339 20.9321 1.5025 18.2299 1.5025C15.7734 1.5025 14.4468 2.97643 13.4151 4.15558L12.6781 4.9908L11.9411 4.15558C10.9094 2.97643 9.58284 1.5025 7.12629 1.5025Z" fill="#1B1C1E"/>
</g>
<defs>
<clipPath id="clip0_1_1500">
<rect width="23.5829" height="20.635" fill="white" transform="translate(0.935791 0.225098)"/>
</clipPath>
</defs>
</svg>
