<svg width="24" height="22" viewBox="0 0 24 22" fill="none" xmlns="http://www.w3.org/2000/svg">
<g clip-path="url(#clip0_1_262)">
<path d="M12.0845 21.361L11.6914 21.0171C2.74958 13.7457 0.342163 11.1909 0.342163 7.01472C0.342163 3.57555 3.14263 0.824219 6.53266 0.824219C9.38226 0.824219 11.0036 2.44554 12.0845 3.67381C13.1654 2.44554 14.7867 0.824219 17.6363 0.824219C21.0754 0.824219 23.8268 3.62468 23.8268 7.01472C23.8268 11.1909 21.4194 13.7457 12.4775 21.0171L12.0845 21.361ZM6.53266 2.10162C3.83046 2.10162 1.61956 4.31252 1.61956 7.01472C1.61956 10.6013 3.87959 12.9596 12.0845 19.6905C20.2893 12.9596 22.5494 10.6013 22.5494 7.01472C22.5494 4.31252 20.3385 2.10162 17.6363 2.10162C15.1797 2.10162 13.8532 3.57556 12.8214 4.7547L12.0845 5.58992L11.3475 4.7547C10.3158 3.57556 8.98921 2.10162 6.53266 2.10162Z" fill="#1B1C1E"/>
</g>
<defs>
<clipPath id="clip0_1_262">
<rect width="23.5829" height="20.635" fill="white" transform="translate(0.342163 0.824219)"/>
</clipPath>
</defs>
</svg>
