<svg width="25" height="21" viewBox="0 0 25 21" fill="none" xmlns="http://www.w3.org/2000/svg">
<g clip-path="url(#clip0_1_201)">
<path d="M12.4908 20.7619L12.0978 20.4179C3.15595 13.1465 0.748535 10.5917 0.748535 6.4156C0.748535 2.97643 3.549 0.225098 6.93904 0.225098C9.78863 0.225098 11.41 1.84641 12.4908 3.07469C13.5717 1.84641 15.193 0.225098 18.0426 0.225098C21.4818 0.225098 24.2332 3.02556 24.2332 6.4156C24.2332 10.5917 21.8257 13.1465 12.8839 20.4179L12.4908 20.7619ZM6.93904 1.5025C4.23683 1.5025 2.02594 3.71339 2.02594 6.4156C2.02594 10.0022 4.28596 12.3605 12.4908 19.0914C20.6957 12.3605 22.9557 10.0022 22.9557 6.4156C22.9557 3.71339 20.7449 1.5025 18.0426 1.5025C15.5861 1.5025 14.2596 2.97643 13.2278 4.15558L12.4908 4.9908L11.7539 4.15558C10.7221 2.97643 9.39559 1.5025 6.93904 1.5025Z" fill="#1B1C1E"/>
</g>
<defs>
<clipPath id="clip0_1_201">
<rect width="23.5829" height="20.635" fill="white" transform="translate(0.748535 0.225098)"/>
</clipPath>
</defs>
</svg>
