<svg width="24" height="21" viewBox="0 0 24 21" fill="none" xmlns="http://www.w3.org/2000/svg">
<g clip-path="url(#clip0_1_424)">
<path d="M12.0845 20.559L11.6914 20.2151C2.74958 12.9437 0.342163 10.3889 0.342163 6.21272C0.342163 2.77355 3.14263 0.0222168 6.53266 0.0222168C9.38226 0.0222168 11.0036 1.64353 12.0845 2.87181C13.1654 1.64353 14.7867 0.0222168 17.6363 0.0222168C21.0754 0.0222168 23.8268 2.82268 23.8268 6.21272C23.8268 10.3889 21.4194 12.9437 12.4775 20.2151L12.0845 20.559ZM6.53266 1.29962C3.83046 1.29962 1.61956 3.51051 1.61956 6.21272C1.61956 9.79928 3.87959 12.1576 12.0845 18.8885C20.2893 12.1576 22.5494 9.79928 22.5494 6.21272C22.5494 3.51051 20.3385 1.29962 17.6363 1.29962C15.1797 1.29962 13.8532 2.77355 12.8214 3.9527L12.0845 4.78792L11.3475 3.9527C10.3158 2.77355 8.98921 1.29962 6.53266 1.29962Z" fill="#1B1C1E"/>
</g>
<defs>
<clipPath id="clip0_1_424">
<rect width="23.5829" height="20.635" fill="white" transform="translate(0.342163 0.0222168)"/>
</clipPath>
</defs>
</svg>
