<svg width="25" height="22" viewBox="0 0 25 22" fill="none" xmlns="http://www.w3.org/2000/svg">
<g clip-path="url(#clip0_1_708)">
<path d="M12.2718 20.9553L11.8788 20.6114C2.93691 13.34 0.529495 10.7852 0.529495 6.60905C0.529495 3.16988 3.32996 0.418549 6.72 0.418549C9.56959 0.418549 11.1909 2.03987 12.2718 3.26814C13.3527 2.03987 14.974 0.418549 17.8236 0.418549C21.2628 0.418549 24.0141 3.21901 24.0141 6.60905C24.0141 10.7852 21.6067 13.34 12.6649 20.6114L12.2718 20.9553ZM6.72 1.69595C4.01779 1.69595 1.8069 3.90685 1.8069 6.60905C1.8069 10.1956 4.06692 12.5539 12.2718 19.2849C20.4767 12.5539 22.7367 10.1956 22.7367 6.60905C22.7367 3.90685 20.5258 1.69595 17.8236 1.69595C15.3671 1.69595 14.0405 3.16988 13.0088 4.34903L12.2718 5.18425L11.5348 4.34903C10.5031 3.16988 9.17655 1.69595 6.72 1.69595Z" fill="#1B1C1E"/>
</g>
<defs>
<clipPath id="clip0_1_708">
<rect width="23.5829" height="20.635" fill="white" transform="translate(0.529495 0.418549)"/>
</clipPath>
</defs>
</svg>
