<svg width="24" height="22" viewBox="0 0 24 22" fill="none" xmlns="http://www.w3.org/2000/svg">
<g clip-path="url(#clip0_1_505)">
<path d="M12.0845 21.158L11.6914 20.8141C2.74958 13.5427 0.342163 10.9879 0.342163 6.81172C0.342163 3.37255 3.14263 0.621216 6.53266 0.621216C9.38226 0.621216 11.0036 2.24253 12.0845 3.47081C13.1654 2.24253 14.7867 0.621216 17.6363 0.621216C21.0754 0.621216 23.8268 3.42168 23.8268 6.81172C23.8268 10.9879 21.4194 13.5427 12.4775 20.8141L12.0845 21.158ZM6.53266 1.89862C3.83046 1.89862 1.61956 4.10951 1.61956 6.81172C1.61956 10.3983 3.87959 12.7566 12.0845 19.4875C20.2893 12.7566 22.5494 10.3983 22.5494 6.81172C22.5494 4.10951 20.3385 1.89862 17.6363 1.89862C15.1797 1.89862 13.8532 3.37255 12.8214 4.5517L12.0845 5.38692L11.3475 4.5517C10.3158 3.37255 8.98921 1.89862 6.53266 1.89862Z" fill="#1B1C1E"/>
</g>
<defs>
<clipPath id="clip0_1_505">
<rect width="23.5829" height="20.635" fill="white" transform="translate(0.342163 0.621216)"/>
</clipPath>
</defs>
</svg>
