<svg width="25" height="21" viewBox="0 0 25 21" fill="none" xmlns="http://www.w3.org/2000/svg">
<g clip-path="url(#clip0_1_404)">
<path d="M12.6781 20.559L12.285 20.2151C3.34321 12.9437 0.935791 10.3889 0.935791 6.21272C0.935791 2.77355 3.73625 0.0222168 7.12629 0.0222168C9.97589 0.0222168 11.5972 1.64353 12.6781 2.87181C13.759 1.64353 15.3803 0.0222168 18.2299 0.0222168C21.6691 0.0222168 24.4204 2.82268 24.4204 6.21272C24.4204 10.3889 22.013 12.9437 13.0711 20.2151L12.6781 20.559ZM7.12629 1.29962C4.42409 1.29962 2.21319 3.51051 2.21319 6.21272C2.21319 9.79928 4.47322 12.1576 12.6781 18.8885C20.883 12.1576 23.143 9.79928 23.143 6.21272C23.143 3.51051 20.9321 1.29962 18.2299 1.29962C15.7734 1.29962 14.4468 2.77355 13.4151 3.9527L12.6781 4.78792L11.9411 3.9527C10.9094 2.77355 9.58284 1.29962 7.12629 1.29962Z" fill="#1B1C1E"/>
</g>
<defs>
<clipPath id="clip0_1_404">
<rect width="23.5829" height="20.635" fill="white" transform="translate(0.935791 0.0222168)"/>
</clipPath>
</defs>
</svg>
