<svg width="25" height="22" viewBox="0 0 25 22" fill="none" xmlns="http://www.w3.org/2000/svg">
<g clip-path="url(#clip0_1_363)">
<path d="M12.4908 20.96L12.0978 20.6161C3.15595 13.3447 0.748535 10.7899 0.748535 6.61372C0.748535 3.17455 3.549 0.423218 6.93904 0.423218C9.78863 0.423218 11.41 2.04453 12.4908 3.27281C13.5717 2.04453 15.193 0.423218 18.0426 0.423218C21.4818 0.423218 24.2332 3.22368 24.2332 6.61372C24.2332 10.7899 21.8257 13.3447 12.8839 20.6161L12.4908 20.96ZM6.93904 1.70062C4.23683 1.70062 2.02594 3.91151 2.02594 6.61372C2.02594 10.2003 4.28596 12.5586 12.4908 19.2895C20.6957 12.5586 22.9557 10.2003 22.9557 6.61372C22.9557 3.91151 20.7449 1.70062 18.0426 1.70062C15.5861 1.70062 14.2596 3.17455 13.2278 4.3537L12.4908 5.18892L11.7539 4.3537C10.7221 3.17455 9.39559 1.70062 6.93904 1.70062Z" fill="#1B1C1E"/>
</g>
<defs>
<clipPath id="clip0_1_363">
<rect width="23.5829" height="20.635" fill="white" transform="translate(0.748535 0.423218)"/>
</clipPath>
</defs>
</svg>
