<svg width="25" height="21" viewBox="0 0 25 21" fill="none" xmlns="http://www.w3.org/2000/svg">
<g clip-path="url(#clip0_1_546)">
<path d="M12.2717 20.7571L11.8787 20.4131C2.93683 13.1418 0.529419 10.5869 0.529419 6.41081C0.529419 2.97164 3.32988 0.220306 6.71992 0.220306C9.56952 0.220306 11.1908 1.84162 12.2717 3.0699C13.3526 1.84162 14.9739 0.220306 17.8235 0.220306C21.2627 0.220306 24.014 3.02077 24.014 6.41081C24.014 10.5869 21.6066 13.1418 12.6648 20.4131L12.2717 20.7571ZM6.71992 1.49771C4.01772 1.49771 1.80682 3.7086 1.80682 6.41081C1.80682 9.99737 4.06685 12.3557 12.2717 19.0866C20.4766 12.3557 22.7366 9.99737 22.7366 6.41081C22.7366 3.7086 20.5257 1.49771 17.8235 1.49771C15.367 1.49771 14.0404 2.97164 13.0087 4.15079L12.2717 4.98601L11.5348 4.15079C10.503 2.97164 9.17647 1.49771 6.71992 1.49771Z" fill="#1B1C1E"/>
</g>
<defs>
<clipPath id="clip0_1_546">
<rect width="23.5829" height="20.635" fill="white" transform="translate(0.529419 0.220306)"/>
</clipPath>
</defs>
</svg>
