<svg width="24" height="21" viewBox="0 0 24 21" fill="none" xmlns="http://www.w3.org/2000/svg">
<g clip-path="url(#clip0_1_181)">
<path d="M12.0845 20.7619L11.6914 20.4179C2.74958 13.1465 0.342163 10.5917 0.342163 6.4156C0.342163 2.97643 3.14263 0.225098 6.53266 0.225098C9.38226 0.225098 11.0036 1.84641 12.0845 3.07469C13.1654 1.84641 14.7867 0.225098 17.6363 0.225098C21.0754 0.225098 23.8268 3.02556 23.8268 6.4156C23.8268 10.5917 21.4194 13.1465 12.4775 20.4179L12.0845 20.7619ZM6.53266 1.5025C3.83046 1.5025 1.61956 3.71339 1.61956 6.4156C1.61956 10.0022 3.87959 12.3605 12.0845 19.0914C20.2893 12.3605 22.5494 10.0022 22.5494 6.4156C22.5494 3.71339 20.3385 1.5025 17.6363 1.5025C15.1797 1.5025 13.8532 2.97643 12.8214 4.15558L12.0845 4.9908L11.3475 4.15558C10.3158 2.97643 8.98921 1.5025 6.53266 1.5025Z" fill="#1B1C1E"/>
</g>
<defs>
<clipPath id="clip0_1_181">
<rect width="23.5829" height="20.635" fill="white" transform="translate(0.342163 0.225098)"/>
</clipPath>
</defs>
</svg>
