<svg width="25" height="21" viewBox="0 0 25 21" fill="none" xmlns="http://www.w3.org/2000/svg">
<g clip-path="url(#clip0_1_444)">
<path d="M12.4908 20.559L12.0978 20.2151C3.15595 12.9437 0.748535 10.3889 0.748535 6.21272C0.748535 2.77355 3.549 0.0222168 6.93904 0.0222168C9.78863 0.0222168 11.41 1.64353 12.4908 2.87181C13.5717 1.64353 15.193 0.0222168 18.0426 0.0222168C21.4818 0.0222168 24.2332 2.82268 24.2332 6.21272C24.2332 10.3889 21.8257 12.9437 12.8839 20.2151L12.4908 20.559ZM6.93904 1.29962C4.23683 1.29962 2.02594 3.51051 2.02594 6.21272C2.02594 9.79928 4.28596 12.1576 12.4908 18.8885C20.6957 12.1576 22.9557 9.79928 22.9557 6.21272C22.9557 3.51051 20.7449 1.29962 18.0426 1.29962C15.5861 1.29962 14.2596 2.77355 13.2278 3.9527L12.4908 4.78792L11.7539 3.9527C10.7221 2.77355 9.39559 1.29962 6.93904 1.29962Z" fill="#1B1C1E"/>
</g>
<defs>
<clipPath id="clip0_1_444">
<rect width="23.5829" height="20.635" fill="white" transform="translate(0.748535 0.0222168)"/>
</clipPath>
</defs>
</svg>
