<svg width="25" height="21" viewBox="0 0 25 21" fill="none" xmlns="http://www.w3.org/2000/svg">
<g clip-path="url(#clip0_1_1516)">
<path d="M12.6781 20.762L12.285 20.4181C3.34321 13.1467 0.935791 10.5919 0.935791 6.41572C0.935791 2.97655 3.73625 0.22522 7.12629 0.22522C9.97589 0.22522 11.5972 1.84654 12.6781 3.07481C13.759 1.84654 15.3803 0.22522 18.2299 0.22522C21.6691 0.22522 24.4204 3.02568 24.4204 6.41572C24.4204 10.5919 22.013 13.1467 13.0711 20.4181L12.6781 20.762ZM7.12629 1.50262C4.42409 1.50262 2.21319 3.71352 2.21319 6.41572C2.21319 10.0023 4.47322 12.3606 12.6781 19.0915C20.883 12.3606 23.143 10.0023 23.143 6.41572C23.143 3.71352 20.9321 1.50262 18.2299 1.50262C15.7734 1.50262 14.4468 2.97656 13.4151 4.1557L12.6781 4.99093L11.9411 4.1557C10.9094 2.97656 9.58284 1.50262 7.12629 1.50262Z" fill="#1B1C1E"/>
</g>
<defs>
<clipPath id="clip0_1_1516">
<rect width="23.5829" height="20.635" fill="white" transform="translate(0.935791 0.22522)"/>
</clipPath>
</defs>
</svg>
