<svg width="25" height="22" viewBox="0 0 25 22" fill="none" xmlns="http://www.w3.org/2000/svg">
<g clip-path="url(#clip0_1_525)">
<path d="M12.4908 21.158L12.0978 20.8141C3.15595 13.5427 0.748535 10.9879 0.748535 6.81172C0.748535 3.37255 3.549 0.621216 6.93904 0.621216C9.78863 0.621216 11.41 2.24253 12.4908 3.47081C13.5717 2.24253 15.193 0.621216 18.0426 0.621216C21.4818 0.621216 24.2332 3.42168 24.2332 6.81172C24.2332 10.9879 21.8257 13.5427 12.8839 20.8141L12.4908 21.158ZM6.93904 1.89862C4.23683 1.89862 2.02594 4.10951 2.02594 6.81172C2.02594 10.3983 4.28596 12.7566 12.4908 19.4875C20.6957 12.7566 22.9557 10.3983 22.9557 6.81172C22.9557 4.10951 20.7449 1.89862 18.0426 1.89862C15.5861 1.89862 14.2596 3.37255 13.2278 4.5517L12.4908 5.38692L11.7539 4.5517C10.7221 3.37255 9.39559 1.89862 6.93904 1.89862Z" fill="#1B1C1E"/>
</g>
<defs>
<clipPath id="clip0_1_525">
<rect width="23.5829" height="20.635" fill="white" transform="translate(0.748535 0.621216)"/>
</clipPath>
</defs>
</svg>
