<svg width="25" height="21" viewBox="0 0 25 21" fill="none" xmlns="http://www.w3.org/2000/svg">
<g clip-path="url(#clip0_1_1520)">
<path d="M12.6781 20.762L12.2851 20.418C3.34321 13.1467 0.935799 10.5918 0.935799 6.41571C0.935799 2.97654 3.73626 0.225211 7.1263 0.225211C9.9759 0.225211 11.5972 1.84653 12.6781 3.0748C13.759 1.84653 15.3803 0.225211 18.2299 0.225211C21.6691 0.225211 24.4204 3.02567 24.4204 6.41571C24.4204 10.5918 22.013 13.1467 13.0712 20.418L12.6781 20.762ZM7.1263 1.50261C4.4241 1.50261 2.2132 3.71351 2.2132 6.41571C2.2132 10.0023 4.47323 12.3606 12.6781 19.0915C20.883 12.3606 23.143 10.0023 23.143 6.41571C23.143 3.71351 20.9321 1.50261 18.2299 1.50261C15.7734 1.50261 14.4468 2.97655 13.4151 4.15569L12.6781 4.99092L11.9411 4.15569C10.9094 2.97655 9.58285 1.50261 7.1263 1.50261Z" fill="#1B1C1E"/>
</g>
<defs>
<clipPath id="clip0_1_1520">
<rect width="23.5829" height="20.635" fill="white" transform="translate(0.935799 0.225211)"/>
</clipPath>
</defs>
</svg>
